<svg width="19" height="20" viewBox="0 0 19 20" fill="none" xmlns="http://www.w3.org/2000/svg">
<path d="M9.16667 0.833984C4.11583 0.833984 0 4.94982 0 10.0007C0 15.0515 4.11583 19.1673 9.16667 19.1673C14.2175 19.1673 18.3333 15.0515 18.3333 10.0007C18.3333 4.94982 14.2175 0.833984 9.16667 0.833984ZM12.2467 12.109C12.5125 12.3748 12.5125 12.8148 12.2467 13.0807C12.1092 13.2182 11.935 13.2823 11.7608 13.2823C11.5867 13.2823 11.4125 13.2182 11.275 13.0807L9.16667 10.9723L7.05833 13.0807C6.92083 13.2182 6.74667 13.2823 6.5725 13.2823C6.39833 13.2823 6.22417 13.2182 6.08667 13.0807C5.82084 12.8148 5.82084 12.3748 6.08667 12.109L8.195 10.0007L6.08667 7.89232C5.82084 7.62649 5.82084 7.18649 6.08667 6.92065C6.3525 6.65482 6.7925 6.65482 7.05833 6.92065L9.16667 9.02899L11.275 6.92065C11.5408 6.65482 11.9808 6.65482 12.2467 6.92065C12.5125 7.18649 12.5125 7.62649 12.2467 7.89232L10.1383 10.0007L12.2467 12.109Z" fill="#292D32"/>
</svg>
